<svg width="448" height="500" viewBox="0 0 448 500" fill="none" xmlns="http://www.w3.org/2000/svg">
<path fill-rule="evenodd" clip-rule="evenodd" d="M224 41.6667C189.481 41.6667 161.499 69.649 161.499 104.167H286.5C286.5 69.649 258.517 41.6667 224 41.6667ZM286.5 145.833V166.667C286.5 178.173 295.827 187.5 307.333 187.5C318.837 187.5 328.167 178.173 328.167 166.667V145.833H353.615C364.179 145.833 373.071 153.741 374.304 164.233L406.167 435.067C407.625 447.452 397.948 458.333 385.477 458.333H62.5219C50.0512 458.333 40.3742 447.452 41.8312 435.067L73.6939 164.233C74.9283 153.741 83.8204 145.833 94.3846 145.833H119.833V166.667C119.833 178.173 129.16 187.5 140.666 187.5C152.172 187.5 161.499 178.173 161.499 166.667V145.833H286.5ZM119.833 104.167H94.3846C62.6919 104.167 36.0158 127.888 32.3127 159.364L0.449991 430.198C-3.92126 467.354 25.1098 500 62.5219 500H385.477C422.89 500 451.921 467.354 447.548 430.198L415.685 159.364C411.983 127.888 385.306 104.167 353.615 104.167H328.167C328.167 46.6371 281.529 0 224 0C166.47 0 119.833 46.6371 119.833 104.167Z" fill="white"/>
</svg>
