<svg width="684" height="800" viewBox="0 0 684 800" fill="none" xmlns="http://www.w3.org/2000/svg">
<g clip-path="url(#clip0_7_1255)">
<path d="M645.133 109.696H487.072V29.0304C487.072 13.0056 474.066 0 458.042 0H225.798C209.774 0 196.768 13.0056 196.768 29.0304V109.696H38.7072C17.3408 109.696 0 127.037 0 148.403C0 169.77 17.3408 187.111 38.7072 187.111H77.4337V751.616C77.4337 778.343 99.0904 800 125.818 800H558.022C584.75 800 606.406 778.343 606.406 751.616V187.111H645.133C666.499 187.111 683.84 169.77 683.84 148.403C683.84 127.037 666.48 109.696 645.133 109.696ZM216.122 690.343C216.122 706.367 203.116 719.373 187.091 719.373C171.066 719.373 158.061 706.367 158.061 690.343V283.917C158.061 267.892 171.066 254.887 187.091 254.887C203.116 254.887 216.122 267.892 216.122 283.917V690.343ZM370.95 690.343C370.95 706.367 357.945 719.373 341.92 719.373C325.895 719.373 312.89 706.367 312.89 690.343V283.917C312.89 267.892 325.895 254.887 341.92 254.887C357.945 254.887 370.95 267.892 370.95 283.917V690.343ZM429.011 109.696H254.829V58.0608H429.011V109.696ZM525.779 690.343C525.779 706.367 512.774 719.373 496.749 719.373C480.724 719.373 467.718 706.367 467.718 690.343V283.917C467.718 267.892 480.724 254.887 496.749 254.887C512.774 254.887 525.779 267.892 525.779 283.917V690.343Z" fill="#383838"/>
</g>
<defs>
<clipPath id="clip0_7_1255">
<rect width="683.84" height="800" fill="white"/>
</clipPath>
</defs>
</svg>
